<mxfile host="app.diagrams.net" modified="2024-02-29T10:42:24.925Z" agent="Mozilla/5.0 (X11; Linux x86_64; rv:123.0) Gecko/20100101 Firefox/123.0" etag="beVVL5HIUhnqNM4gq8qa" version="23.1.8" type="device" pages="2">
  <diagram name="OntologiePicture" id="n1W1JPEff16c-VYwGttl">
    <mxGraphModel dx="2128" dy="1042" grid="1" gridSize="10" guides="1" tooltips="1" connect="1" arrows="1" fold="1" page="0" pageScale="1" pageWidth="850" pageHeight="1100" math="0" shadow="0">
      <root>
        <mxCell id="0" />
        <mxCell id="1" parent="0" />
        <mxCell id="oaBf2V4vc5x-QzF6eInK-13" style="edgeStyle=orthogonalEdgeStyle;rounded=0;orthogonalLoop=1;jettySize=auto;html=1;fontFamily=Helvetica;fontSize=20;" parent="1" source="oaBf2V4vc5x-QzF6eInK-1" target="oaBf2V4vc5x-QzF6eInK-5" edge="1">
          <mxGeometry relative="1" as="geometry">
            <Array as="points">
              <mxPoint x="530" y="500" />
              <mxPoint x="530" y="500" />
            </Array>
          </mxGeometry>
        </mxCell>
        <mxCell id="oaBf2V4vc5x-QzF6eInK-23" value="based_on" style="edgeStyle=orthogonalEdgeStyle;rounded=0;orthogonalLoop=1;jettySize=auto;html=1;entryX=0.5;entryY=0;entryDx=0;entryDy=0;fontFamily=Helvetica;fontSize=20;" parent="1" source="oaBf2V4vc5x-QzF6eInK-1" target="oaBf2V4vc5x-QzF6eInK-25" edge="1">
          <mxGeometry x="-0.2" relative="1" as="geometry">
            <mxPoint x="255" y="560" as="targetPoint" />
            <mxPoint as="offset" />
          </mxGeometry>
        </mxCell>
        <mxCell id="UNRuZ92wYaTmtWvo359--5" style="edgeStyle=orthogonalEdgeStyle;rounded=0;orthogonalLoop=1;jettySize=auto;html=1;entryX=0.5;entryY=0;entryDx=0;entryDy=0;fontFamily=Helvetica;fontSize=20;endArrow=block;endFill=0;" parent="1" source="oaBf2V4vc5x-QzF6eInK-1" target="UNRuZ92wYaTmtWvo359--2" edge="1">
          <mxGeometry relative="1" as="geometry">
            <Array as="points">
              <mxPoint x="-30" y="480" />
            </Array>
          </mxGeometry>
        </mxCell>
        <mxCell id="5lMqdpay3W45fdazZep1-14" style="edgeStyle=orthogonalEdgeStyle;rounded=0;orthogonalLoop=1;jettySize=auto;html=1;entryX=0;entryY=1;entryDx=0;entryDy=0;" parent="1" source="oaBf2V4vc5x-QzF6eInK-1" target="YED-JEnKWqSfSR5y4rkk-6" edge="1">
          <mxGeometry relative="1" as="geometry">
            <Array as="points">
              <mxPoint x="320" y="520" />
              <mxPoint x="320" y="918" />
            </Array>
          </mxGeometry>
        </mxCell>
        <mxCell id="5lMqdpay3W45fdazZep1-15" value="&lt;font style=&quot;font-size: 17px;&quot;&gt;has occurence&lt;/font&gt;" style="edgeLabel;html=1;align=center;verticalAlign=middle;resizable=0;points=[];" parent="5lMqdpay3W45fdazZep1-14" vertex="1" connectable="0">
          <mxGeometry x="0.1923" relative="1" as="geometry">
            <mxPoint as="offset" />
          </mxGeometry>
        </mxCell>
        <mxCell id="oaBf2V4vc5x-QzF6eInK-1" value="Master-dataschema" style="ellipse;whiteSpace=wrap;html=1;fillColor=#f8cecc;strokeColor=#b85450;fontFamily=Helvetica;fontSize=20;" parent="1" vertex="1">
          <mxGeometry x="370" y="460" width="140" height="90" as="geometry" />
        </mxCell>
        <mxCell id="oaBf2V4vc5x-QzF6eInK-7" style="edgeStyle=orthogonalEdgeStyle;rounded=0;orthogonalLoop=1;jettySize=auto;html=1;fontFamily=Helvetica;fontSize=20;endArrow=block;endFill=0;" parent="1" source="oaBf2V4vc5x-QzF6eInK-2" target="oaBf2V4vc5x-QzF6eInK-4" edge="1">
          <mxGeometry relative="1" as="geometry">
            <Array as="points">
              <mxPoint x="530" y="640" />
              <mxPoint x="530" y="730" />
            </Array>
          </mxGeometry>
        </mxCell>
        <mxCell id="oaBf2V4vc5x-QzF6eInK-2" value="Datafield" style="ellipse;whiteSpace=wrap;html=1;fillColor=#f8cecc;strokeColor=#b85450;fontFamily=Helvetica;fontSize=20;" parent="1" vertex="1">
          <mxGeometry x="620" y="600" width="120" height="80" as="geometry" />
        </mxCell>
        <mxCell id="oaBf2V4vc5x-QzF6eInK-6" style="edgeStyle=orthogonalEdgeStyle;rounded=0;orthogonalLoop=1;jettySize=auto;html=1;entryX=1;entryY=0.5;entryDx=0;entryDy=0;fontFamily=Helvetica;fontSize=20;endArrow=block;endFill=0;" parent="1" source="oaBf2V4vc5x-QzF6eInK-3" target="oaBf2V4vc5x-QzF6eInK-4" edge="1">
          <mxGeometry relative="1" as="geometry">
            <Array as="points">
              <mxPoint x="570" y="720" />
              <mxPoint x="570" y="640" />
              <mxPoint x="530" y="640" />
              <mxPoint x="530" y="730" />
            </Array>
          </mxGeometry>
        </mxCell>
        <mxCell id="Jm0rjVpZW7GB72dGLfSl-5" style="edgeStyle=orthogonalEdgeStyle;rounded=0;orthogonalLoop=1;jettySize=auto;html=1;entryX=0.5;entryY=0;entryDx=0;entryDy=0;fontFamily=Helvetica;fontSize=20;" parent="1" edge="1">
          <mxGeometry relative="1" as="geometry">
            <Array as="points">
              <mxPoint x="570" y="730" />
            </Array>
            <mxPoint x="620" y="730" as="sourcePoint" />
            <mxPoint x="570" y="850" as="targetPoint" />
          </mxGeometry>
        </mxCell>
        <mxCell id="Jm0rjVpZW7GB72dGLfSl-6" value="&lt;font style=&quot;font-size: 17px;&quot;&gt;has occurence&lt;br&gt;&lt;/font&gt;" style="edgeLabel;html=1;align=center;verticalAlign=middle;resizable=0;points=[];fontFamily=Helvetica;fontSize=20;" parent="Jm0rjVpZW7GB72dGLfSl-5" vertex="1" connectable="0">
          <mxGeometry x="-0.0216" y="-2" relative="1" as="geometry">
            <mxPoint x="2" y="25" as="offset" />
          </mxGeometry>
        </mxCell>
        <mxCell id="oaBf2V4vc5x-QzF6eInK-3" value="Datafield-Groupe" style="ellipse;whiteSpace=wrap;html=1;fillColor=#f8cecc;strokeColor=#b85450;fontFamily=Helvetica;fontSize=20;" parent="1" vertex="1">
          <mxGeometry x="620" y="690" width="120" height="80" as="geometry" />
        </mxCell>
        <mxCell id="oaBf2V4vc5x-QzF6eInK-12" style="edgeStyle=orthogonalEdgeStyle;rounded=0;orthogonalLoop=1;jettySize=auto;html=1;entryX=0;entryY=0.5;entryDx=0;entryDy=0;fontFamily=Helvetica;fontSize=20;" parent="1" source="oaBf2V4vc5x-QzF6eInK-4" target="oaBf2V4vc5x-QzF6eInK-5" edge="1">
          <mxGeometry relative="1" as="geometry">
            <Array as="points">
              <mxPoint x="510" y="710" />
              <mxPoint x="510" y="610" />
              <mxPoint x="555" y="610" />
              <mxPoint x="555" y="500" />
            </Array>
          </mxGeometry>
        </mxCell>
        <mxCell id="oaBf2V4vc5x-QzF6eInK-15" value="has rule" style="edgeLabel;html=1;align=center;verticalAlign=middle;resizable=0;points=[];fontFamily=Helvetica;fontSize=20;" parent="oaBf2V4vc5x-QzF6eInK-12" vertex="1" connectable="0">
          <mxGeometry x="0.3825" y="-1" relative="1" as="geometry">
            <mxPoint x="4" y="-11" as="offset" />
          </mxGeometry>
        </mxCell>
        <mxCell id="oaBf2V4vc5x-QzF6eInK-24" value="based_on" style="edgeStyle=orthogonalEdgeStyle;rounded=0;orthogonalLoop=1;jettySize=auto;html=1;entryX=0.5;entryY=1;entryDx=0;entryDy=0;fontFamily=Helvetica;fontSize=20;" parent="1" source="oaBf2V4vc5x-QzF6eInK-4" target="oaBf2V4vc5x-QzF6eInK-25" edge="1">
          <mxGeometry x="-0.2727" relative="1" as="geometry">
            <mxPoint x="255" y="589.9999999999999" as="targetPoint" />
            <mxPoint as="offset" />
          </mxGeometry>
        </mxCell>
        <mxCell id="UNRuZ92wYaTmtWvo359--3" style="edgeStyle=orthogonalEdgeStyle;rounded=0;orthogonalLoop=1;jettySize=auto;html=1;entryX=0.5;entryY=1;entryDx=0;entryDy=0;fontFamily=Helvetica;fontSize=20;endArrow=block;endFill=0;" parent="1" source="oaBf2V4vc5x-QzF6eInK-4" target="UNRuZ92wYaTmtWvo359--2" edge="1">
          <mxGeometry relative="1" as="geometry">
            <Array as="points">
              <mxPoint x="400" y="790" />
              <mxPoint x="-30" y="790" />
            </Array>
          </mxGeometry>
        </mxCell>
        <mxCell id="oaBf2V4vc5x-QzF6eInK-4" value="Element" style="ellipse;whiteSpace=wrap;html=1;fillColor=#f8cecc;strokeColor=#b85450;fontFamily=Helvetica;fontSize=20;" parent="1" vertex="1">
          <mxGeometry x="380" y="690" width="120" height="80" as="geometry" />
        </mxCell>
        <mxCell id="ysAmBfewuRX0SqNVdfi0-90" value="" style="edgeStyle=orthogonalEdgeStyle;rounded=0;orthogonalLoop=1;jettySize=auto;html=1;entryX=0;entryY=0.5;entryDx=0;entryDy=0;fontFamily=Helvetica;fontSize=20;endArrow=block;endFill=0;" parent="1" source="oaBf2V4vc5x-QzF6eInK-5" target="oaBf2V4vc5x-QzF6eInK-40" edge="1">
          <mxGeometry x="-0.0037" relative="1" as="geometry">
            <mxPoint as="offset" />
          </mxGeometry>
        </mxCell>
        <mxCell id="UNRuZ92wYaTmtWvo359--7" style="edgeStyle=orthogonalEdgeStyle;rounded=0;orthogonalLoop=1;jettySize=auto;html=1;entryX=0.5;entryY=0;entryDx=0;entryDy=0;fontFamily=Helvetica;fontSize=20;endArrow=block;endFill=0;" parent="1" source="oaBf2V4vc5x-QzF6eInK-5" target="UNRuZ92wYaTmtWvo359--2" edge="1">
          <mxGeometry relative="1" as="geometry">
            <Array as="points">
              <mxPoint x="670" y="440" />
              <mxPoint x="-30" y="440" />
            </Array>
          </mxGeometry>
        </mxCell>
        <mxCell id="oaBf2V4vc5x-QzF6eInK-5" value="FIMRule" style="ellipse;whiteSpace=wrap;html=1;fillColor=#f8cecc;strokeColor=#b85450;fontFamily=Helvetica;fontSize=20;" parent="1" vertex="1">
          <mxGeometry x="660" y="460" width="120" height="80" as="geometry" />
        </mxCell>
        <mxCell id="oaBf2V4vc5x-QzF6eInK-25" value="&lt;div style=&quot;font-size: 20px;&quot;&gt;Basisfor-Action&lt;/div&gt;" style="ellipse;whiteSpace=wrap;html=1;fillColor=#dae8fc;strokeColor=#6c8ebf;fontFamily=Helvetica;fontSize=20;" parent="1" vertex="1">
          <mxGeometry x="60" y="540" width="120" height="80" as="geometry" />
        </mxCell>
        <mxCell id="oaBf2V4vc5x-QzF6eInK-40" value="Rule" style="ellipse;whiteSpace=wrap;html=1;fillColor=#d5e8d4;strokeColor=#82b366;fontFamily=Helvetica;fontSize=20;" parent="1" vertex="1">
          <mxGeometry x="850" y="460" width="120" height="80" as="geometry" />
        </mxCell>
        <mxCell id="UNRuZ92wYaTmtWvo359--2" value="gerps:Data-Field" style="ellipse;whiteSpace=wrap;html=1;fillColor=#dae8fc;strokeColor=#6c8ebf;fontFamily=Helvetica;fontSize=20;" parent="1" vertex="1">
          <mxGeometry x="-90" y="540" width="120" height="80" as="geometry" />
        </mxCell>
        <mxCell id="lFKJyYWwEAIAkF2CNO6X-2" value="&amp;nbsp;" style="text;whiteSpace=wrap;html=1;fontFamily=Helvetica;fontSize=20;" parent="1" vertex="1">
          <mxGeometry x="-90" y="770" width="40" height="40" as="geometry" />
        </mxCell>
        <mxCell id="_rz0XuVxJIYIOwtDIm4M-3" style="edgeStyle=orthogonalEdgeStyle;rounded=0;orthogonalLoop=1;jettySize=auto;html=1;entryX=0.5;entryY=0;entryDx=0;entryDy=0;" parent="1" source="_rz0XuVxJIYIOwtDIm4M-1" target="oaBf2V4vc5x-QzF6eInK-1" edge="1">
          <mxGeometry relative="1" as="geometry" />
        </mxCell>
        <mxCell id="_rz0XuVxJIYIOwtDIm4M-4" style="edgeStyle=orthogonalEdgeStyle;rounded=0;orthogonalLoop=1;jettySize=auto;html=1;entryX=0.5;entryY=0;entryDx=0;entryDy=0;" parent="1" source="_rz0XuVxJIYIOwtDIm4M-1" target="oaBf2V4vc5x-QzF6eInK-4" edge="1">
          <mxGeometry relative="1" as="geometry">
            <Array as="points">
              <mxPoint x="440" y="340" />
              <mxPoint x="360" y="340" />
              <mxPoint x="360" y="650" />
              <mxPoint x="440" y="650" />
            </Array>
          </mxGeometry>
        </mxCell>
        <mxCell id="_rz0XuVxJIYIOwtDIm4M-5" style="edgeStyle=orthogonalEdgeStyle;rounded=0;orthogonalLoop=1;jettySize=auto;html=1;entryX=0.5;entryY=0;entryDx=0;entryDy=0;" parent="1" source="_rz0XuVxJIYIOwtDIm4M-1" target="oaBf2V4vc5x-QzF6eInK-5" edge="1">
          <mxGeometry relative="1" as="geometry">
            <Array as="points">
              <mxPoint x="440" y="340" />
              <mxPoint x="720" y="340" />
            </Array>
          </mxGeometry>
        </mxCell>
        <mxCell id="_rz0XuVxJIYIOwtDIm4M-6" value="&lt;font style=&quot;font-size: 20px;&quot;&gt;has Version&lt;/font&gt;" style="edgeLabel;html=1;align=center;verticalAlign=middle;resizable=0;points=[];" parent="_rz0XuVxJIYIOwtDIm4M-5" vertex="1" connectable="0">
          <mxGeometry x="-0.8876" y="-1" relative="1" as="geometry">
            <mxPoint x="11" y="15" as="offset" />
          </mxGeometry>
        </mxCell>
        <mxCell id="_rz0XuVxJIYIOwtDIm4M-1" value="Element-Head" style="ellipse;whiteSpace=wrap;html=1;fillColor=#f8cecc;strokeColor=#b85450;fontFamily=Helvetica;fontSize=20;" parent="1" vertex="1">
          <mxGeometry x="380" y="220" width="120" height="80" as="geometry" />
        </mxCell>
        <mxCell id="5lMqdpay3W45fdazZep1-8" style="edgeStyle=orthogonalEdgeStyle;rounded=0;orthogonalLoop=1;jettySize=auto;html=1;entryX=0;entryY=0.5;entryDx=0;entryDy=0;" parent="1" source="YED-JEnKWqSfSR5y4rkk-6" target="5lMqdpay3W45fdazZep1-6" edge="1">
          <mxGeometry relative="1" as="geometry">
            <Array as="points">
              <mxPoint x="665" y="880" />
              <mxPoint x="665" y="840" />
              <mxPoint x="790" y="840" />
            </Array>
          </mxGeometry>
        </mxCell>
        <mxCell id="5lMqdpay3W45fdazZep1-10" value="&lt;font style=&quot;font-size: 20px;&quot;&gt;hasMin&lt;br&gt;Occurence&lt;/font&gt;" style="edgeLabel;html=1;align=center;verticalAlign=middle;resizable=0;points=[];" parent="5lMqdpay3W45fdazZep1-8" vertex="1" connectable="0">
          <mxGeometry x="-0.4694" y="1" relative="1" as="geometry">
            <mxPoint x="36" y="-23" as="offset" />
          </mxGeometry>
        </mxCell>
        <mxCell id="5lMqdpay3W45fdazZep1-9" style="edgeStyle=orthogonalEdgeStyle;rounded=0;orthogonalLoop=1;jettySize=auto;html=1;entryX=0;entryY=0.5;entryDx=0;entryDy=0;" parent="1" source="YED-JEnKWqSfSR5y4rkk-6" target="5lMqdpay3W45fdazZep1-7" edge="1">
          <mxGeometry relative="1" as="geometry">
            <Array as="points">
              <mxPoint x="665" y="900" />
              <mxPoint x="665" y="940" />
            </Array>
          </mxGeometry>
        </mxCell>
        <mxCell id="5lMqdpay3W45fdazZep1-11" value="&lt;div style=&quot;font-size: 17px;&quot;&gt;hasMax&lt;br&gt;&lt;/div&gt;&lt;div style=&quot;font-size: 17px;&quot;&gt;&lt;font style=&quot;font-size: 17px;&quot;&gt;Occurence&lt;/font&gt;&lt;/div&gt;" style="edgeLabel;html=1;align=center;verticalAlign=middle;resizable=0;points=[];" parent="5lMqdpay3W45fdazZep1-9" vertex="1" connectable="0">
          <mxGeometry x="-0.0043" y="-4" relative="1" as="geometry">
            <mxPoint x="21" y="-3" as="offset" />
          </mxGeometry>
        </mxCell>
        <mxCell id="YED-JEnKWqSfSR5y4rkk-6" value="Occurence" style="ellipse;whiteSpace=wrap;html=1;fillColor=#f8cecc;strokeColor=#b85450;fontFamily=Helvetica;fontSize=20;" parent="1" vertex="1">
          <mxGeometry x="510" y="850" width="120" height="80" as="geometry" />
        </mxCell>
        <mxCell id="YED-JEnKWqSfSR5y4rkk-11" style="edgeStyle=orthogonalEdgeStyle;rounded=0;orthogonalLoop=1;jettySize=auto;html=1;entryX=0.5;entryY=1;entryDx=0;entryDy=0;" parent="1" source="YED-JEnKWqSfSR5y4rkk-6" target="oaBf2V4vc5x-QzF6eInK-4" edge="1">
          <mxGeometry relative="1" as="geometry">
            <Array as="points">
              <mxPoint x="440" y="890" />
            </Array>
          </mxGeometry>
        </mxCell>
        <mxCell id="YED-JEnKWqSfSR5y4rkk-12" value="&lt;div style=&quot;font-size: 17px;&quot;&gt;&lt;font style=&quot;font-size: 17px;&quot;&gt;has occurenced&lt;/font&gt;&lt;/div&gt;&lt;div style=&quot;font-size: 17px;&quot;&gt;&lt;font style=&quot;font-size: 17px;&quot;&gt;element&lt;/font&gt;&lt;br&gt;&lt;/div&gt;" style="edgeLabel;html=1;align=center;verticalAlign=middle;resizable=0;points=[];" parent="YED-JEnKWqSfSR5y4rkk-11" vertex="1" connectable="0">
          <mxGeometry x="-0.3075" y="2" relative="1" as="geometry">
            <mxPoint x="-4" y="-62" as="offset" />
          </mxGeometry>
        </mxCell>
        <mxCell id="5lMqdpay3W45fdazZep1-6" value="&lt;font style=&quot;font-size: 20px;&quot;&gt;&quot;min&quot;&lt;/font&gt;" style="rounded=0;whiteSpace=wrap;html=1;" parent="1" vertex="1">
          <mxGeometry x="790" y="818" width="110" height="45" as="geometry" />
        </mxCell>
        <mxCell id="5lMqdpay3W45fdazZep1-7" value="&lt;font style=&quot;font-size: 20px;&quot;&gt;&quot;max&quot;&lt;/font&gt;" style="rounded=0;whiteSpace=wrap;html=1;" parent="1" vertex="1">
          <mxGeometry x="790" y="920" width="100" height="40" as="geometry" />
        </mxCell>
        <mxCell id="w1O7ESTWZDBGfBWDYX77-1" value="&lt;font style=&quot;font-size: 30px;&quot;&gt;Legende&lt;/font&gt;&lt;br&gt;&lt;br&gt;&lt;br&gt;&lt;br&gt;&lt;div&gt;&lt;br&gt;&lt;/div&gt;" style="rounded=0;whiteSpace=wrap;html=1;flipV=1;flipH=0;" vertex="1" parent="1">
          <mxGeometry x="-210" y="100" width="1270" height="80" as="geometry" />
        </mxCell>
        <mxCell id="w1O7ESTWZDBGfBWDYX77-2" value="" style="rounded=0;whiteSpace=wrap;html=1;fillColor=#dae8fc;flipV=1;flipH=0;" vertex="1" parent="1">
          <mxGeometry x="-190" y="145" width="150" height="20" as="geometry" />
        </mxCell>
        <mxCell id="w1O7ESTWZDBGfBWDYX77-3" value="&lt;font style=&quot;font-size: 20px;&quot;&gt;GerPS-Onto&lt;/font&gt;" style="text;html=1;align=center;verticalAlign=middle;whiteSpace=wrap;rounded=0;flipV=1;flipH=0;" vertex="1" parent="1">
          <mxGeometry x="-40" y="140" width="120" height="30" as="geometry" />
        </mxCell>
        <mxCell id="w1O7ESTWZDBGfBWDYX77-4" value="" style="rounded=0;whiteSpace=wrap;html=1;fillColor=#f8cecc;flipV=1;flipH=0;" vertex="1" parent="1">
          <mxGeometry x="100" y="145" width="150" height="20" as="geometry" />
        </mxCell>
        <mxCell id="w1O7ESTWZDBGfBWDYX77-5" value="&lt;font style=&quot;font-size: 20px;&quot;&gt;GerPS-Datenfeld&lt;/font&gt;" style="text;html=1;align=center;verticalAlign=middle;whiteSpace=wrap;rounded=0;flipV=1;flipH=0;" vertex="1" parent="1">
          <mxGeometry x="250" y="140" width="160" height="30" as="geometry" />
        </mxCell>
        <mxCell id="w1O7ESTWZDBGfBWDYX77-6" value="" style="rounded=0;whiteSpace=wrap;html=1;fillColor=#d5e8d4;strokeColor=#82b366;flipV=1;flipH=0;" vertex="1" parent="1">
          <mxGeometry x="430" y="145" width="150" height="20" as="geometry" />
        </mxCell>
        <mxCell id="w1O7ESTWZDBGfBWDYX77-7" value="&lt;font style=&quot;font-size: 20px;&quot;&gt;EUPont&lt;/font&gt;" style="text;html=1;align=center;verticalAlign=middle;whiteSpace=wrap;rounded=0;flipV=1;flipH=0;" vertex="1" parent="1">
          <mxGeometry x="582" y="140" width="70" height="30" as="geometry" />
        </mxCell>
        <mxCell id="w1O7ESTWZDBGfBWDYX77-8" value="" style="endArrow=classic;html=1;rounded=0;" edge="1" parent="1">
          <mxGeometry width="50" height="50" relative="1" as="geometry">
            <mxPoint x="685" y="157.32999999999987" as="sourcePoint" />
            <mxPoint x="755" y="157.32999999999987" as="targetPoint" />
          </mxGeometry>
        </mxCell>
        <mxCell id="w1O7ESTWZDBGfBWDYX77-9" value="&lt;font style=&quot;font-size: 20px;&quot;&gt;Property&lt;/font&gt;" style="text;html=1;align=center;verticalAlign=middle;whiteSpace=wrap;rounded=0;flipV=1;flipH=0;" vertex="1" parent="1">
          <mxGeometry x="760" y="145" width="70" height="20" as="geometry" />
        </mxCell>
        <mxCell id="w1O7ESTWZDBGfBWDYX77-10" value="" style="endArrow=block;html=1;rounded=0;endFill=0;" edge="1" parent="1">
          <mxGeometry width="50" height="50" relative="1" as="geometry">
            <mxPoint x="850" y="157.32999999999987" as="sourcePoint" />
            <mxPoint x="920" y="157.32999999999987" as="targetPoint" />
          </mxGeometry>
        </mxCell>
        <mxCell id="w1O7ESTWZDBGfBWDYX77-11" value="&lt;font style=&quot;font-size: 20px;&quot;&gt;subClassOf&lt;/font&gt;" style="text;html=1;align=center;verticalAlign=middle;whiteSpace=wrap;rounded=0;flipV=1;flipH=0;" vertex="1" parent="1">
          <mxGeometry x="925" y="145" width="105" height="20" as="geometry" />
        </mxCell>
      </root>
    </mxGraphModel>
  </diagram>
  <diagram id="dHHt4MeqWT1fEz5knFlV" name="FIM-Rule_Structure">
    <mxGraphModel dx="3191" dy="3023" grid="1" gridSize="10" guides="1" tooltips="1" connect="1" arrows="1" fold="1" page="1" pageScale="1" pageWidth="850" pageHeight="1100" math="0" shadow="0">
      <root>
        <mxCell id="0" />
        <mxCell id="1" parent="0" />
        <mxCell id="gpPifBZ7v1fN5_zFIfOQ-1" style="edgeStyle=orthogonalEdgeStyle;rounded=0;orthogonalLoop=1;jettySize=auto;html=1;entryX=0.978;entryY=0.349;entryDx=0;entryDy=0;fontFamily=Helvetica;fontSize=20;entryPerimeter=0;" parent="1" edge="1">
          <mxGeometry relative="1" as="geometry">
            <Array as="points">
              <mxPoint x="1906.95" y="332" />
              <mxPoint x="1986.95" y="332" />
              <mxPoint x="1986.95" y="380" />
            </Array>
            <mxPoint x="1906.95" y="352.63946811266925" as="sourcePoint" />
            <mxPoint x="1954.3099999999997" y="380.00000000000006" as="targetPoint" />
          </mxGeometry>
        </mxCell>
        <mxCell id="gpPifBZ7v1fN5_zFIfOQ-2" value="hasNextAction" style="edgeLabel;html=1;align=center;verticalAlign=middle;resizable=0;points=[];fontFamily=Helvetica;fontSize=20;" parent="gpPifBZ7v1fN5_zFIfOQ-1" vertex="1" connectable="0">
          <mxGeometry x="0.0688" relative="1" as="geometry">
            <mxPoint x="24" y="18" as="offset" />
          </mxGeometry>
        </mxCell>
        <mxCell id="KozUObt0tO_viu0FLGWb-1" style="edgeStyle=orthogonalEdgeStyle;rounded=0;orthogonalLoop=1;jettySize=auto;html=1;endArrow=block;endFill=0;strokeWidth=1;" parent="1" source="gpPifBZ7v1fN5_zFIfOQ-3" target="5D-T-K68hwFX2fVkPp4C-1" edge="1">
          <mxGeometry relative="1" as="geometry" />
        </mxCell>
        <mxCell id="gpPifBZ7v1fN5_zFIfOQ-3" value="Datafield" style="ellipse;whiteSpace=wrap;html=1;fillColor=#f8cecc;strokeColor=#b85450;fontFamily=Helvetica;fontSize=20;" parent="1" vertex="1">
          <mxGeometry x="776.95" y="600" width="120" height="80" as="geometry" />
        </mxCell>
        <mxCell id="gpPifBZ7v1fN5_zFIfOQ-5" value="" style="edgeStyle=orthogonalEdgeStyle;rounded=0;orthogonalLoop=1;jettySize=auto;html=1;entryX=0;entryY=0.5;entryDx=0;entryDy=0;fontFamily=Helvetica;fontSize=20;endArrow=block;endFill=0;" parent="1" source="gpPifBZ7v1fN5_zFIfOQ-6" target="gpPifBZ7v1fN5_zFIfOQ-9" edge="1">
          <mxGeometry x="-0.1158" relative="1" as="geometry">
            <mxPoint as="offset" />
          </mxGeometry>
        </mxCell>
        <mxCell id="gpPifBZ7v1fN5_zFIfOQ-6" value="FIMRule" style="ellipse;whiteSpace=wrap;html=1;fillColor=#f8cecc;strokeColor=#b85450;fontFamily=Helvetica;fontSize=20;" parent="1" vertex="1">
          <mxGeometry x="896.95" y="460" width="120" height="80" as="geometry" />
        </mxCell>
        <mxCell id="gpPifBZ7v1fN5_zFIfOQ-7" value="hasTrigger" style="edgeStyle=orthogonalEdgeStyle;rounded=0;orthogonalLoop=1;jettySize=auto;html=1;entryX=0.5;entryY=0;entryDx=0;entryDy=0;fontFamily=Helvetica;fontSize=20;" parent="1" source="gpPifBZ7v1fN5_zFIfOQ-9" target="gpPifBZ7v1fN5_zFIfOQ-10" edge="1">
          <mxGeometry x="-0.3376" relative="1" as="geometry">
            <Array as="points">
              <mxPoint x="1381.95" y="510" />
            </Array>
            <mxPoint as="offset" />
          </mxGeometry>
        </mxCell>
        <mxCell id="gpPifBZ7v1fN5_zFIfOQ-8" value="hasAction" style="edgeStyle=orthogonalEdgeStyle;rounded=0;orthogonalLoop=1;jettySize=auto;html=1;entryX=0.5;entryY=1;entryDx=0;entryDy=0;fontFamily=Helvetica;fontSize=20;" parent="1" target="gpPifBZ7v1fN5_zFIfOQ-11" edge="1">
          <mxGeometry x="-0.2433" relative="1" as="geometry">
            <mxPoint x="1246.9515242270663" y="479.9999999999999" as="sourcePoint" />
            <mxPoint x="1344.99" y="429.9999999999999" as="targetPoint" />
            <Array as="points">
              <mxPoint x="1371.95" y="480" />
            </Array>
            <mxPoint as="offset" />
          </mxGeometry>
        </mxCell>
        <mxCell id="gpPifBZ7v1fN5_zFIfOQ-9" value="Rule" style="ellipse;whiteSpace=wrap;html=1;fillColor=#d5e8d4;strokeColor=#82b366;fontFamily=Helvetica;fontSize=20;" parent="1" vertex="1">
          <mxGeometry x="1136.95" y="460" width="120" height="80" as="geometry" />
        </mxCell>
        <mxCell id="gpPifBZ7v1fN5_zFIfOQ-10" value="Instantiated-Trigger" style="ellipse;whiteSpace=wrap;html=1;fillColor=#d5e8d4;strokeColor=#82b366;fontFamily=Helvetica;fontSize=20;" parent="1" vertex="1">
          <mxGeometry x="1316.95" y="570" width="130" height="80" as="geometry" />
        </mxCell>
        <mxCell id="gpPifBZ7v1fN5_zFIfOQ-11" value="Instantiated-Action" style="ellipse;whiteSpace=wrap;html=1;fillColor=#d5e8d4;strokeColor=#82b366;fontFamily=Helvetica;fontSize=20;" parent="1" vertex="1">
          <mxGeometry x="1306.95" y="340" width="130" height="80" as="geometry" />
        </mxCell>
        <mxCell id="gpPifBZ7v1fN5_zFIfOQ-12" style="edgeStyle=orthogonalEdgeStyle;rounded=0;orthogonalLoop=1;jettySize=auto;html=1;fontFamily=Helvetica;fontSize=20;endArrow=block;endFill=0;" parent="1" source="gpPifBZ7v1fN5_zFIfOQ-16" target="gpPifBZ7v1fN5_zFIfOQ-10" edge="1">
          <mxGeometry relative="1" as="geometry">
            <Array as="points">
              <mxPoint x="1556.95" y="610" />
              <mxPoint x="1556.95" y="610" />
            </Array>
          </mxGeometry>
        </mxCell>
        <mxCell id="gpPifBZ7v1fN5_zFIfOQ-14" value="" style="edgeStyle=orthogonalEdgeStyle;rounded=0;orthogonalLoop=1;jettySize=auto;html=1;fontFamily=Helvetica;fontSize=20;entryX=0;entryY=0.5;entryDx=0;entryDy=0;" parent="1" source="gpPifBZ7v1fN5_zFIfOQ-16" target="gpPifBZ7v1fN5_zFIfOQ-25" edge="1">
          <mxGeometry relative="1" as="geometry">
            <Array as="points">
              <mxPoint x="1826.95" y="600" />
            </Array>
          </mxGeometry>
        </mxCell>
        <mxCell id="gpPifBZ7v1fN5_zFIfOQ-15" value="&lt;div&gt;nominal-&lt;/div&gt;&lt;div&gt;Trigger&lt;/div&gt;" style="edgeLabel;html=1;align=center;verticalAlign=middle;resizable=0;points=[];fontFamily=Helvetica;fontSize=20;" parent="gpPifBZ7v1fN5_zFIfOQ-14" vertex="1" connectable="0">
          <mxGeometry x="-0.2155" y="1" relative="1" as="geometry">
            <mxPoint x="11" y="1" as="offset" />
          </mxGeometry>
        </mxCell>
        <mxCell id="gpPifBZ7v1fN5_zFIfOQ-16" value="komplex-Trigger" style="ellipse;whiteSpace=wrap;html=1;fillColor=#f8cecc;strokeColor=#b85450;fontFamily=Helvetica;fontSize=20;" parent="1" vertex="1">
          <mxGeometry x="1566.95" y="560" width="120" height="80" as="geometry" />
        </mxCell>
        <mxCell id="gpPifBZ7v1fN5_zFIfOQ-17" value="" style="edgeStyle=orthogonalEdgeStyle;rounded=0;orthogonalLoop=1;jettySize=auto;html=1;entryX=1;entryY=0.5;entryDx=0;entryDy=0;fontFamily=Helvetica;fontSize=20;endArrow=block;endFill=0;" parent="1" source="gpPifBZ7v1fN5_zFIfOQ-20" target="gpPifBZ7v1fN5_zFIfOQ-11" edge="1">
          <mxGeometry x="0.1114" relative="1" as="geometry">
            <Array as="points">
              <mxPoint x="1546.95" y="380" />
              <mxPoint x="1546.95" y="380" />
            </Array>
            <mxPoint as="offset" />
          </mxGeometry>
        </mxCell>
        <mxCell id="gpPifBZ7v1fN5_zFIfOQ-18" value="" style="edgeStyle=orthogonalEdgeStyle;rounded=0;orthogonalLoop=1;jettySize=auto;html=1;entryX=0;entryY=0.5;entryDx=0;entryDy=0;fontFamily=Helvetica;fontSize=20;" parent="1" source="gpPifBZ7v1fN5_zFIfOQ-20" target="gpPifBZ7v1fN5_zFIfOQ-61" edge="1">
          <mxGeometry relative="1" as="geometry">
            <mxPoint x="1806.95" y="390" as="targetPoint" />
            <Array as="points">
              <mxPoint x="1796.95" y="390" />
              <mxPoint x="1796.95" y="390" />
            </Array>
          </mxGeometry>
        </mxCell>
        <mxCell id="gpPifBZ7v1fN5_zFIfOQ-19" value="&lt;div&gt;nominal-&lt;/div&gt;&lt;div&gt;Action&lt;/div&gt;" style="edgeLabel;html=1;align=center;verticalAlign=middle;resizable=0;points=[];fontFamily=Helvetica;fontSize=20;" parent="gpPifBZ7v1fN5_zFIfOQ-18" vertex="1" connectable="0">
          <mxGeometry x="-0.319" y="-1" relative="1" as="geometry">
            <mxPoint x="22" y="-1" as="offset" />
          </mxGeometry>
        </mxCell>
        <mxCell id="gpPifBZ7v1fN5_zFIfOQ-20" value="&lt;div class=&quot;tw-data-text tw-text-large tw-ta&quot; data-placeholder=&quot;Übersetzung&quot; id=&quot;tw-target-text&quot; style=&quot;font-size: 20px;&quot; dir=&quot;ltr&quot; align=&quot;center&quot;&gt;Sequence-Action&lt;/div&gt;" style="ellipse;whiteSpace=wrap;html=1;fillColor=#f8cecc;strokeColor=#b85450;fontFamily=Helvetica;fontSize=20;align=center;" parent="1" vertex="1">
          <mxGeometry x="1576.95" y="350" width="120" height="80" as="geometry" />
        </mxCell>
        <mxCell id="gpPifBZ7v1fN5_zFIfOQ-21" style="edgeStyle=orthogonalEdgeStyle;rounded=0;orthogonalLoop=1;jettySize=auto;html=1;entryX=0.5;entryY=1;entryDx=0;entryDy=0;fontFamily=Helvetica;fontSize=20;" parent="1" source="gpPifBZ7v1fN5_zFIfOQ-25" target="gpPifBZ7v1fN5_zFIfOQ-6" edge="1">
          <mxGeometry relative="1" as="geometry">
            <Array as="points">
              <mxPoint x="1856.95" y="670" />
              <mxPoint x="1096.95" y="670" />
              <mxPoint x="1096.95" y="560" />
              <mxPoint x="956.95" y="560" />
            </Array>
          </mxGeometry>
        </mxCell>
        <mxCell id="gpPifBZ7v1fN5_zFIfOQ-22" value="part of rule" style="edgeLabel;html=1;align=center;verticalAlign=middle;resizable=0;points=[];fontFamily=Helvetica;fontSize=20;" parent="gpPifBZ7v1fN5_zFIfOQ-21" vertex="1" connectable="0">
          <mxGeometry x="-0.3921" y="-1" relative="1" as="geometry">
            <mxPoint x="-322" as="offset" />
          </mxGeometry>
        </mxCell>
        <mxCell id="gpPifBZ7v1fN5_zFIfOQ-23" style="edgeStyle=orthogonalEdgeStyle;rounded=0;orthogonalLoop=1;jettySize=auto;html=1;entryX=0;entryY=0.5;entryDx=0;entryDy=0;endArrow=block;endFill=0;" parent="1" source="gpPifBZ7v1fN5_zFIfOQ-25" target="gpPifBZ7v1fN5_zFIfOQ-44" edge="1">
          <mxGeometry relative="1" as="geometry">
            <Array as="points">
              <mxPoint x="1886.95" y="500" />
            </Array>
          </mxGeometry>
        </mxCell>
        <mxCell id="gpPifBZ7v1fN5_zFIfOQ-25" value="&lt;div class=&quot;tw-data-text tw-text-large tw-ta&quot; data-placeholder=&quot;Übersetzung&quot; id=&quot;tw-target-text&quot; style=&quot;text-align: left; font-size: 20px;&quot; dir=&quot;ltr&quot;&gt;Condition&lt;/div&gt;" style="ellipse;whiteSpace=wrap;html=1;fillColor=#f8cecc;strokeColor=#b85450;fontFamily=Helvetica;fontSize=20;" parent="1" vertex="1">
          <mxGeometry x="1826.95" y="560" width="120" height="80" as="geometry" />
        </mxCell>
        <mxCell id="gpPifBZ7v1fN5_zFIfOQ-26" style="edgeStyle=orthogonalEdgeStyle;rounded=0;orthogonalLoop=1;jettySize=auto;html=1;fontFamily=Helvetica;fontSize=20;endArrow=block;endFill=0;" parent="1" source="gpPifBZ7v1fN5_zFIfOQ-27" target="gpPifBZ7v1fN5_zFIfOQ-37" edge="1">
          <mxGeometry relative="1" as="geometry">
            <Array as="points">
              <mxPoint x="1956.95" y="870" />
              <mxPoint x="2021.95" y="870" />
            </Array>
          </mxGeometry>
        </mxCell>
        <mxCell id="gpPifBZ7v1fN5_zFIfOQ-27" value="And" style="ellipse;whiteSpace=wrap;html=1;fillColor=#f8cecc;strokeColor=#b85450;fontFamily=Helvetica;fontSize=20;" parent="1" vertex="1">
          <mxGeometry x="1896.95" y="900" width="120" height="80" as="geometry" />
        </mxCell>
        <mxCell id="gpPifBZ7v1fN5_zFIfOQ-28" value="" style="edgeStyle=orthogonalEdgeStyle;rounded=0;orthogonalLoop=1;jettySize=auto;html=1;entryX=0.5;entryY=1;entryDx=0;entryDy=0;exitX=0.5;exitY=1;exitDx=0;exitDy=0;fontFamily=Helvetica;fontSize=20;endArrow=block;endFill=0;" parent="1" source="gpPifBZ7v1fN5_zFIfOQ-29" target="gpPifBZ7v1fN5_zFIfOQ-37" edge="1">
          <mxGeometry x="0.3448" relative="1" as="geometry">
            <mxPoint x="2241.95" y="800" as="sourcePoint" />
            <mxPoint x="2081.95" y="770" as="targetPoint" />
            <Array as="points">
              <mxPoint x="2102" y="980" />
              <mxPoint x="2102" y="870" />
              <mxPoint x="2022" y="870" />
            </Array>
            <mxPoint as="offset" />
          </mxGeometry>
        </mxCell>
        <mxCell id="gpPifBZ7v1fN5_zFIfOQ-29" value="Or" style="ellipse;whiteSpace=wrap;html=1;fillColor=#f8cecc;strokeColor=#b85450;fontFamily=Helvetica;fontSize=20;" parent="1" vertex="1">
          <mxGeometry x="2046.95" y="900" width="120" height="80" as="geometry" />
        </mxCell>
        <mxCell id="gpPifBZ7v1fN5_zFIfOQ-30" style="edgeStyle=orthogonalEdgeStyle;rounded=0;orthogonalLoop=1;jettySize=auto;html=1;entryX=0.5;entryY=1;entryDx=0;entryDy=0;exitX=1;exitY=0.5;exitDx=0;exitDy=0;fontFamily=Helvetica;fontSize=20;endArrow=block;endFill=0;" parent="1" source="gpPifBZ7v1fN5_zFIfOQ-31" target="gpPifBZ7v1fN5_zFIfOQ-41" edge="1">
          <mxGeometry relative="1" as="geometry">
            <mxPoint x="1676.95" y="960" as="sourcePoint" />
            <Array as="points">
              <mxPoint x="1626.95" y="900" />
            </Array>
          </mxGeometry>
        </mxCell>
        <mxCell id="gpPifBZ7v1fN5_zFIfOQ-31" value="notEquals" style="ellipse;whiteSpace=wrap;html=1;fillColor=#f8cecc;strokeColor=#b85450;fontFamily=Helvetica;fontSize=20;" parent="1" vertex="1">
          <mxGeometry x="1476.95" y="860" width="120" height="80" as="geometry" />
        </mxCell>
        <mxCell id="gpPifBZ7v1fN5_zFIfOQ-32" value="" style="edgeStyle=orthogonalEdgeStyle;rounded=0;orthogonalLoop=1;jettySize=auto;html=1;entryX=0.5;entryY=1;entryDx=0;entryDy=0;exitX=0;exitY=0.5;exitDx=0;exitDy=0;fontFamily=Helvetica;fontSize=20;endArrow=block;endFill=0;" parent="1" source="gpPifBZ7v1fN5_zFIfOQ-33" target="gpPifBZ7v1fN5_zFIfOQ-41" edge="1">
          <mxGeometry x="0.0029" relative="1" as="geometry">
            <Array as="points">
              <mxPoint x="1626.95" y="900" />
            </Array>
            <mxPoint as="offset" />
          </mxGeometry>
        </mxCell>
        <mxCell id="gpPifBZ7v1fN5_zFIfOQ-33" value="Equals" style="ellipse;whiteSpace=wrap;html=1;fillColor=#f8cecc;strokeColor=#b85450;fontFamily=Helvetica;fontSize=20;" parent="1" vertex="1">
          <mxGeometry x="1656.95" y="860" width="120" height="80" as="geometry" />
        </mxCell>
        <mxCell id="gpPifBZ7v1fN5_zFIfOQ-34" value="&lt;div&gt;exactly 1&amp;nbsp;&lt;/div&gt;&lt;div&gt;hasLeft&lt;/div&gt;" style="edgeStyle=orthogonalEdgeStyle;rounded=0;orthogonalLoop=1;jettySize=auto;html=1;entryX=1;entryY=0.5;entryDx=0;entryDy=0;fontFamily=Helvetica;fontSize=20;" parent="1" source="gpPifBZ7v1fN5_zFIfOQ-37" target="gpPifBZ7v1fN5_zFIfOQ-25" edge="1">
          <mxGeometry x="0.0007" relative="1" as="geometry">
            <Array as="points">
              <mxPoint x="2016.95" y="600" />
            </Array>
            <mxPoint as="offset" />
          </mxGeometry>
        </mxCell>
        <mxCell id="gpPifBZ7v1fN5_zFIfOQ-35" value="&lt;div&gt;exactly 1&amp;nbsp;&lt;/div&gt;&lt;div&gt;hasRight&lt;/div&gt;" style="edgeStyle=orthogonalEdgeStyle;rounded=0;orthogonalLoop=1;jettySize=auto;html=1;fontFamily=Helvetica;fontSize=20;entryX=1;entryY=0;entryDx=0;entryDy=0;" parent="1" source="gpPifBZ7v1fN5_zFIfOQ-37" target="gpPifBZ7v1fN5_zFIfOQ-25" edge="1">
          <mxGeometry x="-0.7092" relative="1" as="geometry">
            <Array as="points">
              <mxPoint x="2066.95" y="572" />
            </Array>
            <mxPoint as="offset" />
            <mxPoint x="1946.95" y="580" as="targetPoint" />
          </mxGeometry>
        </mxCell>
        <mxCell id="gpPifBZ7v1fN5_zFIfOQ-36" style="edgeStyle=orthogonalEdgeStyle;rounded=0;orthogonalLoop=1;jettySize=auto;html=1;" parent="1" source="gpPifBZ7v1fN5_zFIfOQ-37" edge="1">
          <mxGeometry relative="1" as="geometry">
            <mxPoint x="1886.95" y="640" as="targetPoint" />
          </mxGeometry>
        </mxCell>
        <mxCell id="gpPifBZ7v1fN5_zFIfOQ-37" value="Logic-Operator" style="ellipse;whiteSpace=wrap;html=1;fillColor=#f8cecc;strokeColor=#b85450;fontFamily=Helvetica;fontSize=20;" parent="1" vertex="1">
          <mxGeometry x="1961.95" y="730" width="120" height="80" as="geometry" />
        </mxCell>
        <mxCell id="gpPifBZ7v1fN5_zFIfOQ-38" value="hasTargetField" style="edgeStyle=orthogonalEdgeStyle;rounded=0;orthogonalLoop=1;jettySize=auto;html=1;entryX=1;entryY=0.5;entryDx=0;entryDy=0;fontFamily=Helvetica;fontSize=20;" parent="1" source="gpPifBZ7v1fN5_zFIfOQ-41" target="gpPifBZ7v1fN5_zFIfOQ-3" edge="1">
          <mxGeometry relative="1" as="geometry">
            <mxPoint x="1286.95" y="809.9999999999998" as="targetPoint" />
            <Array as="points">
              <mxPoint x="1056.95" y="770" />
              <mxPoint x="1056.95" y="640" />
            </Array>
          </mxGeometry>
        </mxCell>
        <mxCell id="gpPifBZ7v1fN5_zFIfOQ-39" value="value" style="edgeStyle=orthogonalEdgeStyle;rounded=0;orthogonalLoop=1;jettySize=auto;html=1;fontFamily=Helvetica;fontSize=20;" parent="1" source="gpPifBZ7v1fN5_zFIfOQ-41" target="gpPifBZ7v1fN5_zFIfOQ-42" edge="1">
          <mxGeometry x="0.2297" relative="1" as="geometry">
            <Array as="points">
              <mxPoint x="1576.95" y="820" />
            </Array>
            <mxPoint as="offset" />
          </mxGeometry>
        </mxCell>
        <mxCell id="gpPifBZ7v1fN5_zFIfOQ-40" style="edgeStyle=orthogonalEdgeStyle;rounded=0;orthogonalLoop=1;jettySize=auto;html=1;entryX=0.5;entryY=1;entryDx=0;entryDy=0;" parent="1" source="gpPifBZ7v1fN5_zFIfOQ-41" target="gpPifBZ7v1fN5_zFIfOQ-25" edge="1">
          <mxGeometry relative="1" as="geometry" />
        </mxCell>
        <mxCell id="gpPifBZ7v1fN5_zFIfOQ-41" value="Statements" style="ellipse;whiteSpace=wrap;html=1;fillColor=#f8cecc;strokeColor=#b85450;fontFamily=Helvetica;fontSize=20;" parent="1" vertex="1">
          <mxGeometry x="1566.95" y="730" width="120" height="80" as="geometry" />
        </mxCell>
        <mxCell id="gpPifBZ7v1fN5_zFIfOQ-42" value="&quot;value&quot;" style="whiteSpace=wrap;html=1;fontFamily=Helvetica;fontSize=20;" parent="1" vertex="1">
          <mxGeometry x="1426.95" y="810" width="60" height="20" as="geometry" />
        </mxCell>
        <mxCell id="gpPifBZ7v1fN5_zFIfOQ-43" value="Action" style="ellipse;whiteSpace=wrap;html=1;fillColor=#d5e8d4;strokeColor=#82b366;fontFamily=Helvetica;fontSize=20;" parent="1" vertex="1">
          <mxGeometry x="2126.95" y="350" width="120" height="80" as="geometry" />
        </mxCell>
        <mxCell id="gpPifBZ7v1fN5_zFIfOQ-44" value="Trigger" style="ellipse;whiteSpace=wrap;html=1;fillColor=#d5e8d4;strokeColor=#82b366;fontFamily=Helvetica;fontSize=20;" parent="1" vertex="1">
          <mxGeometry x="2126.95" y="460" width="120" height="80" as="geometry" />
        </mxCell>
        <mxCell id="gpPifBZ7v1fN5_zFIfOQ-45" style="edgeStyle=orthogonalEdgeStyle;rounded=0;orthogonalLoop=1;jettySize=auto;html=1;entryX=0.5;entryY=0;entryDx=0;entryDy=0;fontFamily=Helvetica;fontSize=20;endArrow=block;endFill=0;" parent="1" source="gpPifBZ7v1fN5_zFIfOQ-46" target="gpPifBZ7v1fN5_zFIfOQ-61" edge="1">
          <mxGeometry relative="1" as="geometry" />
        </mxCell>
        <mxCell id="gpPifBZ7v1fN5_zFIfOQ-46" value="visibility action" style="ellipse;whiteSpace=wrap;html=1;fillColor=#f8cecc;strokeColor=#b85450;fontFamily=Helvetica;fontSize=20;" parent="1" vertex="1">
          <mxGeometry x="1656.95" y="210" width="120" height="80" as="geometry" />
        </mxCell>
        <mxCell id="gpPifBZ7v1fN5_zFIfOQ-47" style="edgeStyle=orthogonalEdgeStyle;rounded=0;orthogonalLoop=1;jettySize=auto;html=1;entryX=0.5;entryY=0;entryDx=0;entryDy=0;fontFamily=Helvetica;fontSize=20;endArrow=block;endFill=0;" parent="1" source="gpPifBZ7v1fN5_zFIfOQ-48" target="gpPifBZ7v1fN5_zFIfOQ-46" edge="1">
          <mxGeometry relative="1" as="geometry" />
        </mxCell>
        <mxCell id="gpPifBZ7v1fN5_zFIfOQ-48" value="turn vis- ibility off" style="ellipse;whiteSpace=wrap;html=1;fillColor=#f8cecc;strokeColor=#b85450;fontFamily=Helvetica;fontSize=20;" parent="1" vertex="1">
          <mxGeometry x="1556.95" y="80" width="120" height="80" as="geometry" />
        </mxCell>
        <mxCell id="gpPifBZ7v1fN5_zFIfOQ-49" value="" style="edgeStyle=orthogonalEdgeStyle;rounded=0;orthogonalLoop=1;jettySize=auto;html=1;entryX=0.5;entryY=0;entryDx=0;entryDy=0;fontFamily=Helvetica;fontSize=20;endArrow=block;endFill=0;" parent="1" source="gpPifBZ7v1fN5_zFIfOQ-50" target="gpPifBZ7v1fN5_zFIfOQ-46" edge="1">
          <mxGeometry x="0.6875" relative="1" as="geometry">
            <mxPoint y="-1" as="offset" />
          </mxGeometry>
        </mxCell>
        <mxCell id="gpPifBZ7v1fN5_zFIfOQ-50" value="turn vis- ibility on" style="ellipse;whiteSpace=wrap;html=1;fillColor=#f8cecc;strokeColor=#b85450;fontFamily=Helvetica;fontSize=20;" parent="1" vertex="1">
          <mxGeometry x="1756.95" y="80" width="120" height="80" as="geometry" />
        </mxCell>
        <mxCell id="gpPifBZ7v1fN5_zFIfOQ-51" value="" style="edgeStyle=orthogonalEdgeStyle;rounded=0;orthogonalLoop=1;jettySize=auto;html=1;entryX=0.5;entryY=0;entryDx=0;entryDy=0;fontFamily=Helvetica;fontSize=20;endArrow=block;endFill=0;" parent="1" source="gpPifBZ7v1fN5_zFIfOQ-52" target="gpPifBZ7v1fN5_zFIfOQ-61" edge="1">
          <mxGeometry x="0.5" relative="1" as="geometry">
            <mxPoint as="offset" />
          </mxGeometry>
        </mxCell>
        <mxCell id="gpPifBZ7v1fN5_zFIfOQ-52" value="required action" style="ellipse;whiteSpace=wrap;html=1;fillColor=#f8cecc;strokeColor=#b85450;fontFamily=Helvetica;fontSize=20;" parent="1" vertex="1">
          <mxGeometry x="1986.95" y="210" width="120" height="80" as="geometry" />
        </mxCell>
        <mxCell id="gpPifBZ7v1fN5_zFIfOQ-53" style="edgeStyle=orthogonalEdgeStyle;rounded=0;orthogonalLoop=1;jettySize=auto;html=1;entryX=0.5;entryY=0;entryDx=0;entryDy=0;fontFamily=Helvetica;fontSize=20;endArrow=block;endFill=0;" parent="1" source="gpPifBZ7v1fN5_zFIfOQ-54" target="gpPifBZ7v1fN5_zFIfOQ-52" edge="1">
          <mxGeometry relative="1" as="geometry" />
        </mxCell>
        <mxCell id="gpPifBZ7v1fN5_zFIfOQ-54" value="turn re-quired on" style="ellipse;whiteSpace=wrap;html=1;fillColor=#f8cecc;strokeColor=#b85450;fontFamily=Helvetica;fontSize=20;" parent="1" vertex="1">
          <mxGeometry x="1906.95" y="80" width="120" height="80" as="geometry" />
        </mxCell>
        <mxCell id="gpPifBZ7v1fN5_zFIfOQ-55" value="" style="edgeStyle=orthogonalEdgeStyle;rounded=0;orthogonalLoop=1;jettySize=auto;html=1;entryX=0.5;entryY=0;entryDx=0;entryDy=0;fontFamily=Helvetica;fontSize=20;endArrow=block;endFill=0;" parent="1" source="gpPifBZ7v1fN5_zFIfOQ-56" target="gpPifBZ7v1fN5_zFIfOQ-52" edge="1">
          <mxGeometry x="0.6429" relative="1" as="geometry">
            <mxPoint y="-1" as="offset" />
          </mxGeometry>
        </mxCell>
        <mxCell id="gpPifBZ7v1fN5_zFIfOQ-56" value="turn re-quired off" style="ellipse;whiteSpace=wrap;html=1;fillColor=#f8cecc;strokeColor=#b85450;fontFamily=Helvetica;fontSize=20;" parent="1" vertex="1">
          <mxGeometry x="2076.95" y="80" width="120" height="80" as="geometry" />
        </mxCell>
        <mxCell id="gpPifBZ7v1fN5_zFIfOQ-57" value="" style="edgeStyle=orthogonalEdgeStyle;rounded=0;orthogonalLoop=1;jettySize=auto;html=1;entryX=0;entryY=0.5;entryDx=0;entryDy=0;fontFamily=Helvetica;fontSize=20;endArrow=block;endFill=0;" parent="1" source="gpPifBZ7v1fN5_zFIfOQ-61" target="gpPifBZ7v1fN5_zFIfOQ-43" edge="1">
          <mxGeometry relative="1" as="geometry" />
        </mxCell>
        <mxCell id="gpPifBZ7v1fN5_zFIfOQ-59" style="edgeStyle=orthogonalEdgeStyle;rounded=0;orthogonalLoop=1;jettySize=auto;html=1;fontFamily=Helvetica;fontSize=20;" parent="1" source="gpPifBZ7v1fN5_zFIfOQ-61" target="gpPifBZ7v1fN5_zFIfOQ-6" edge="1">
          <mxGeometry relative="1" as="geometry">
            <Array as="points">
              <mxPoint x="1807" y="380" />
              <mxPoint x="1807" y="330" />
              <mxPoint x="960" y="330" />
            </Array>
          </mxGeometry>
        </mxCell>
        <mxCell id="gpPifBZ7v1fN5_zFIfOQ-60" value="part of rule" style="edgeLabel;html=1;align=center;verticalAlign=middle;resizable=0;points=[];fontFamily=Helvetica;fontSize=20;" parent="gpPifBZ7v1fN5_zFIfOQ-59" vertex="1" connectable="0">
          <mxGeometry x="0.645" y="1" relative="1" as="geometry">
            <mxPoint x="149" y="-1" as="offset" />
          </mxGeometry>
        </mxCell>
        <mxCell id="5D-T-K68hwFX2fVkPp4C-2" style="edgeStyle=orthogonalEdgeStyle;rounded=0;orthogonalLoop=1;jettySize=auto;html=1;entryX=0.5;entryY=0;entryDx=0;entryDy=0;" parent="1" source="gpPifBZ7v1fN5_zFIfOQ-61" target="5D-T-K68hwFX2fVkPp4C-1" edge="1">
          <mxGeometry relative="1" as="geometry">
            <Array as="points">
              <mxPoint x="1850" y="320" />
              <mxPoint x="1620" y="320" />
              <mxPoint x="1620" y="260" />
              <mxPoint x="837" y="260" />
            </Array>
          </mxGeometry>
        </mxCell>
        <mxCell id="5D-T-K68hwFX2fVkPp4C-3" value="&lt;font style=&quot;font-size: 20px;&quot;&gt;hasTargetElement&lt;/font&gt;" style="edgeLabel;html=1;align=center;verticalAlign=middle;resizable=0;points=[];" parent="5D-T-K68hwFX2fVkPp4C-2" vertex="1" connectable="0">
          <mxGeometry x="0.4108" y="-1" relative="1" as="geometry">
            <mxPoint as="offset" />
          </mxGeometry>
        </mxCell>
        <mxCell id="gpPifBZ7v1fN5_zFIfOQ-61" value="element action" style="ellipse;whiteSpace=wrap;html=1;fillColor=#f8cecc;strokeColor=#b85450;fontFamily=Helvetica;fontSize=20;" parent="1" vertex="1">
          <mxGeometry x="1836.95" y="350" width="120" height="80" as="geometry" />
        </mxCell>
        <mxCell id="gpPifBZ7v1fN5_zFIfOQ-62" style="edgeStyle=orthogonalEdgeStyle;rounded=0;orthogonalLoop=1;jettySize=auto;html=1;entryX=0.5;entryY=1;entryDx=0;entryDy=0;fontFamily=Helvetica;fontSize=20;endArrow=block;endFill=0;" parent="1" source="gpPifBZ7v1fN5_zFIfOQ-63" target="gpPifBZ7v1fN5_zFIfOQ-41" edge="1">
          <mxGeometry relative="1" as="geometry">
            <Array as="points">
              <mxPoint x="1626.95" y="990" />
            </Array>
          </mxGeometry>
        </mxCell>
        <mxCell id="gpPifBZ7v1fN5_zFIfOQ-63" value="greater-Statement" style="ellipse;whiteSpace=wrap;html=1;fillColor=#f8cecc;strokeColor=#b85450;fontFamily=Helvetica;fontSize=20;" parent="1" vertex="1">
          <mxGeometry x="1656.95" y="950" width="120" height="80" as="geometry" />
        </mxCell>
        <mxCell id="gpPifBZ7v1fN5_zFIfOQ-64" style="edgeStyle=orthogonalEdgeStyle;rounded=0;orthogonalLoop=1;jettySize=auto;html=1;entryX=0.5;entryY=1;entryDx=0;entryDy=0;fontFamily=Helvetica;fontSize=20;endArrow=block;endFill=0;" parent="1" source="gpPifBZ7v1fN5_zFIfOQ-65" target="gpPifBZ7v1fN5_zFIfOQ-41" edge="1">
          <mxGeometry relative="1" as="geometry">
            <Array as="points">
              <mxPoint x="1626.95" y="990" />
            </Array>
          </mxGeometry>
        </mxCell>
        <mxCell id="gpPifBZ7v1fN5_zFIfOQ-65" value="lesser-Statement" style="ellipse;whiteSpace=wrap;html=1;fillColor=#f8cecc;strokeColor=#b85450;fontFamily=Helvetica;fontSize=20;" parent="1" vertex="1">
          <mxGeometry x="1476.95" y="950" width="120" height="80" as="geometry" />
        </mxCell>
        <mxCell id="gpPifBZ7v1fN5_zFIfOQ-66" style="edgeStyle=orthogonalEdgeStyle;rounded=0;orthogonalLoop=1;jettySize=auto;html=1;endArrow=block;endFill=0;" parent="1" source="gpPifBZ7v1fN5_zFIfOQ-67" edge="1">
          <mxGeometry relative="1" as="geometry">
            <mxPoint x="1626.95" y="810" as="targetPoint" />
          </mxGeometry>
        </mxCell>
        <mxCell id="gpPifBZ7v1fN5_zFIfOQ-67" value="&lt;div style=&quot;font-size: 20px;&quot;&gt;lesserEquals-&lt;/div&gt;&lt;div style=&quot;font-size: 20px;&quot;&gt;Statement&lt;/div&gt;" style="ellipse;whiteSpace=wrap;html=1;fillColor=#f8cecc;strokeColor=#b85450;fontFamily=Helvetica;fontSize=20;" parent="1" vertex="1">
          <mxGeometry x="1457.95" y="1050" width="140" height="90" as="geometry" />
        </mxCell>
        <mxCell id="gpPifBZ7v1fN5_zFIfOQ-68" style="edgeStyle=orthogonalEdgeStyle;rounded=0;orthogonalLoop=1;jettySize=auto;html=1;endArrow=block;endFill=0;" parent="1" source="gpPifBZ7v1fN5_zFIfOQ-69" edge="1">
          <mxGeometry relative="1" as="geometry">
            <mxPoint x="1626.95" y="810" as="targetPoint" />
          </mxGeometry>
        </mxCell>
        <mxCell id="gpPifBZ7v1fN5_zFIfOQ-69" value="&lt;div style=&quot;font-size: 20px;&quot;&gt;greaterEquals-&lt;/div&gt;&lt;div style=&quot;font-size: 20px;&quot;&gt;Statement&lt;/div&gt;" style="ellipse;whiteSpace=wrap;html=1;fillColor=#f8cecc;strokeColor=#b85450;fontFamily=Helvetica;fontSize=20;" parent="1" vertex="1">
          <mxGeometry x="1656.95" y="1050" width="140" height="90" as="geometry" />
        </mxCell>
        <mxCell id="gpPifBZ7v1fN5_zFIfOQ-70" value="&amp;nbsp;" style="text;whiteSpace=wrap;html=1;" parent="1" vertex="1">
          <mxGeometry x="1346.95" y="670" width="40" height="40" as="geometry" />
        </mxCell>
        <mxCell id="5D-T-K68hwFX2fVkPp4C-1" value="Element" style="ellipse;whiteSpace=wrap;html=1;fillColor=#f8cecc;strokeColor=#b85450;fontFamily=Helvetica;fontSize=20;" parent="1" vertex="1">
          <mxGeometry x="776.95" y="300" width="120" height="80" as="geometry" />
        </mxCell>
        <mxCell id="gYvkR8zZXkdWanF6pNrT-1" value="&lt;font style=&quot;font-size: 30px;&quot;&gt;Legende&lt;/font&gt;&lt;br&gt;&lt;br&gt;&lt;br&gt;&lt;br&gt;&lt;div&gt;&lt;br&gt;&lt;/div&gt;" style="rounded=0;whiteSpace=wrap;html=1;flipV=0;flipH=0;" vertex="1" parent="1">
          <mxGeometry x="760" y="-40" width="1520" height="80" as="geometry" />
        </mxCell>
        <mxCell id="gYvkR8zZXkdWanF6pNrT-2" value="" style="rounded=0;whiteSpace=wrap;html=1;fillColor=#dae8fc;flipV=0;flipH=0;" vertex="1" parent="1">
          <mxGeometry x="912.95" y="5" width="150" height="20" as="geometry" />
        </mxCell>
        <mxCell id="gYvkR8zZXkdWanF6pNrT-3" value="&lt;font style=&quot;font-size: 20px;&quot;&gt;GerPS-Onto&lt;/font&gt;" style="text;html=1;align=center;verticalAlign=middle;whiteSpace=wrap;rounded=0;flipV=0;flipH=0;" vertex="1" parent="1">
          <mxGeometry x="1062.95" width="120" height="30" as="geometry" />
        </mxCell>
        <mxCell id="gYvkR8zZXkdWanF6pNrT-4" value="" style="rounded=0;whiteSpace=wrap;html=1;fillColor=#f8cecc;flipV=0;flipH=0;" vertex="1" parent="1">
          <mxGeometry x="1202.95" y="5" width="150" height="20" as="geometry" />
        </mxCell>
        <mxCell id="gYvkR8zZXkdWanF6pNrT-5" value="&lt;font style=&quot;font-size: 20px;&quot;&gt;GerPS-Datenfeld&lt;/font&gt;" style="text;html=1;align=center;verticalAlign=middle;whiteSpace=wrap;rounded=0;flipV=0;flipH=0;" vertex="1" parent="1">
          <mxGeometry x="1352.95" width="160" height="30" as="geometry" />
        </mxCell>
        <mxCell id="gYvkR8zZXkdWanF6pNrT-6" value="" style="rounded=0;whiteSpace=wrap;html=1;fillColor=#d5e8d4;strokeColor=#82b366;flipV=0;flipH=0;" vertex="1" parent="1">
          <mxGeometry x="1532.95" y="5" width="150" height="20" as="geometry" />
        </mxCell>
        <mxCell id="gYvkR8zZXkdWanF6pNrT-7" value="&lt;font style=&quot;font-size: 20px;&quot;&gt;EUPont&lt;/font&gt;" style="text;html=1;align=center;verticalAlign=middle;whiteSpace=wrap;rounded=0;flipV=0;flipH=0;" vertex="1" parent="1">
          <mxGeometry x="1684.95" width="70" height="30" as="geometry" />
        </mxCell>
        <mxCell id="gYvkR8zZXkdWanF6pNrT-8" value="" style="endArrow=classic;html=1;rounded=0;" edge="1" parent="1">
          <mxGeometry width="50" height="50" relative="1" as="geometry">
            <mxPoint x="1787.95" y="18.329999999999984" as="sourcePoint" />
            <mxPoint x="1857.95" y="18.329999999999984" as="targetPoint" />
          </mxGeometry>
        </mxCell>
        <mxCell id="gYvkR8zZXkdWanF6pNrT-9" value="&lt;font style=&quot;font-size: 20px;&quot;&gt;Property&lt;/font&gt;" style="text;html=1;align=center;verticalAlign=middle;whiteSpace=wrap;rounded=0;flipV=0;flipH=0;" vertex="1" parent="1">
          <mxGeometry x="1862.95" y="5" width="70" height="20" as="geometry" />
        </mxCell>
        <mxCell id="gYvkR8zZXkdWanF6pNrT-10" value="" style="endArrow=block;html=1;rounded=0;endFill=0;" edge="1" parent="1">
          <mxGeometry width="50" height="50" relative="1" as="geometry">
            <mxPoint x="1952.95" y="18.329999999999984" as="sourcePoint" />
            <mxPoint x="2022.95" y="18.329999999999984" as="targetPoint" />
          </mxGeometry>
        </mxCell>
        <mxCell id="gYvkR8zZXkdWanF6pNrT-11" value="&lt;font style=&quot;font-size: 20px;&quot;&gt;subClassOf&lt;/font&gt;" style="text;html=1;align=center;verticalAlign=middle;whiteSpace=wrap;rounded=0;flipV=0;flipH=0;" vertex="1" parent="1">
          <mxGeometry x="2027.95" y="5" width="105" height="20" as="geometry" />
        </mxCell>
      </root>
    </mxGraphModel>
  </diagram>
</mxfile>
